<svg width="204" height="43" viewBox="0.533 0.981 203.42 41.045" xmlns="http://www.w3.org/2000/svg"><path d="M129.605 9.896a6.528 6.528 0 0 0-1.279-2.167 5.514 5.514 0 0 0-2.057-1.482c-.779-.343-1.724-.514-2.781-.514-1.278 0-2.39.343-3.391.913-1.001.627-1.835 1.482-2.391 2.566-.612 1.083-.89 2.28-.89 3.706 0 1.312.278 2.566.89 3.65a6.463 6.463 0 0 0 2.446 2.623c1.057.627 2.28.97 3.67.97.945 0 1.779-.172 2.558-.457a5.907 5.907 0 0 0 2.001-1.197c.556-.514 1.001-1.084 1.224-1.768l-2.614-1.312c-.278.57-.722.97-1.223 1.312-.5.342-1.168.456-1.89.456-.723 0-1.39-.17-1.946-.513a3.166 3.166 0 0 1-1.279-1.54 5.042 5.042 0 0 1-.334-1.311h9.73c.056-.171.112-.4.112-.684 0-.229.055-.514.055-.742-.167-.798-.333-1.71-.611-2.509Zm-7.951-.855a3.299 3.299 0 0 1 1.834-.513c.723 0 1.335.17 1.835.513.501.342.89.855 1.112 1.425.112.286.167.57.167.913h-6.394c.056-.285.111-.57.222-.799a3.393 3.393 0 0 1 1.224-1.54Zm16.235 11.005c-1.501 0-2.724-.456-3.558-1.312-.834-.855-1.279-2.052-1.279-3.65V9.04h-2.28V6.075h.223c.667 0 1.167-.17 1.557-.513.389-.342.556-.855.556-1.54v-1.14h3.224v3.136h3.114v2.965h-3.114v5.93c0 .457.056.856.223 1.198.167.342.389.57.723.742.333.17.778.228 1.279.228h.389c.167 0 .333-.057.445-.057v2.85c-.223.058-.501.058-.779.115-.222.057-.5.057-.723.057Zm12.956-.171h3.725l-5.06-8.269 4.949-5.53H150.4l-5.06 5.473V1h-3.281v18.875h3.281v-4.22l1.724-1.939 3.781 6.159Zm22.741-11.633c-.445-.798-1.057-1.425-1.78-1.824-.778-.457-1.668-.685-2.613-.685-.945 0-1.779.228-2.502.628-.556.342-1.001.798-1.279 1.368V6.02h-3.058v13.856h3.225v-8.097c0-.627.111-1.14.334-1.597a2.39 2.39 0 0 1 .945-1.026c.389-.228.89-.342 1.39-.342.556 0 1.001.114 1.446.342.389.228.722.57.945 1.026.222.456.333.97.333 1.597v8.097h3.225V10.98c.056-1.027-.166-1.94-.611-2.738Zm-64.999 8.61 6.95-8.382V5.676h-11.176v3.08h6.728l-7.061 8.381v2.738h11.565v-3.023h-7.006Zm50.931-8.781h-3.224v11.804h3.224V8.071Zm0-5.075h-3.224v3.536h3.224V2.996ZM81.12 40.004v-9.123h-2.391v-2.966h2.39v-.456c0-1.026.223-1.939.612-2.68.445-.741 1.001-1.312 1.78-1.71.778-.4 1.668-.571 2.724-.571.223 0 .445 0 .667.057.223 0 .445.057.612.114v2.851c-.167-.057-.334-.057-.445-.057h-.389c-.723 0-1.279.171-1.668.514-.39.342-.612.855-.612 1.54v.455h2.224v2.965H84.4v9.124h-3.28v-.057Zm13.622.228c-1.334 0-2.502-.285-3.614-.912-1.056-.627-1.946-1.483-2.558-2.566-.611-1.084-.945-2.338-.945-3.707 0-1.368.334-2.623.945-3.706.612-1.084 1.502-1.94 2.558-2.566 1.057-.628 2.28-.913 3.614-.913 1.335 0 2.502.342 3.614.913 1.057.627 1.946 1.482 2.558 2.566.612 1.083.945 2.338.945 3.706 0 1.369-.333 2.623-.945 3.707-.667 1.083-1.501 1.939-2.558 2.566-1.167.57-2.335.912-3.614.912Zm0-3.079c.723 0 1.39-.171 1.946-.513.556-.342 1.001-.856 1.335-1.483.333-.627.5-1.368.5-2.167 0-.798-.167-1.54-.5-2.167-.334-.627-.779-1.083-1.335-1.482-.556-.342-1.167-.57-1.946-.57-.723 0-1.39.17-1.946.57-.556.342-1 .855-1.334 1.482-.334.628-.5 1.312-.5 2.167 0 .799.166 1.54.5 2.167.333.627.778 1.14 1.334 1.483.5.342 1.168.513 1.946.513Zm17.404-11.063v8.098c0 .627-.112 1.14-.334 1.597a2.39 2.39 0 0 1-.945 1.026c-.389.228-.89.342-1.39.342a3.017 3.017 0 0 1-1.446-.342c-.445-.228-.723-.57-.945-1.026-.222-.456-.334-.912-.334-1.54v-8.154h-3.225v8.44c0 1.14.223 2.11.612 2.965s1.001 1.482 1.779 1.995c.779.457 1.668.685 2.725.685.945 0 1.779-.228 2.502-.628a3.575 3.575 0 0 0 1.279-1.311v1.654h3.058v-13.8h-3.336Zm16.847 2.167c-.445-.798-1.056-1.426-1.779-1.825-.779-.456-1.668-.684-2.613-.684-.946 0-1.78.228-2.503.627-.556.342-1 .799-1.278 1.369v-1.71h-3.059V39.89h3.225v-8.097c0-.628.112-1.14.334-1.597a2.39 2.39 0 0 1 .945-1.027c.389-.228.89-.342 1.39-.342.556 0 1.001.114 1.446.342.389.229.723.57.945 1.027.223.456.334.97.334 1.597v8.097h3.225v-8.896c.055-1.026-.167-1.939-.612-2.737Zm13.456-5.588v4.79a4.412 4.412 0 0 0-1.39-1.084c-.779-.399-1.724-.627-2.725-.627a6.419 6.419 0 0 0-3.447.97c-1.057.627-1.835 1.482-2.447 2.566-.611 1.083-.889 2.28-.889 3.65 0 1.31.278 2.565.889 3.649.612 1.083 1.39 1.995 2.447 2.623 1.001.627 2.168.97 3.503.97 1.001 0 1.89-.172 2.724-.571.612-.285 1.168-.741 1.613-1.255v1.54h3.058V22.67h-3.336Zm-.501 12.488c-.333.627-.778 1.14-1.334 1.483-.556.342-1.223.513-1.946.513-.723 0-1.39-.171-1.946-.513-.556-.342-1.057-.856-1.335-1.483-.333-.627-.5-1.368-.5-2.167 0-.798.167-1.54.5-2.167.334-.627.779-1.083 1.335-1.482a3.721 3.721 0 0 1 1.946-.57c.723 0 1.39.17 1.946.513.556.342 1.001.855 1.334 1.482.334.628.501 1.369.501 2.167 0 .856-.167 1.597-.501 2.224Zm16.403-7.013c-.445-.742-1.112-1.312-1.946-1.711-.834-.4-1.835-.627-2.947-.627-.89 0-1.779.17-2.502.456-.779.285-1.446.741-2.002 1.254a4.884 4.884 0 0 0-1.279 1.882l2.669 1.312c.223-.628.667-1.14 1.168-1.54.556-.4 1.167-.57 1.835-.57.723 0 1.334.17 1.779.57.445.4.667.912.667 1.483v.456l-4.003.684c-1.057.171-1.946.456-2.613.855-.668.4-1.224.913-1.557 1.54a4.3 4.3 0 0 0-.501 2.053c0 .798.167 1.483.556 2.11.389.627.89 1.083 1.613 1.368.667.343 1.501.457 2.446.457.723 0 1.446-.114 2.057-.343.612-.228 1.168-.513 1.613-.912.167-.171.389-.342.556-.513v1.483h3.058V30.71c.056-.97-.167-1.882-.667-2.566Zm-2.947 7.869c-.278.513-.667.912-1.223 1.254a3.598 3.598 0 0 1-1.78.457c-.556 0-.945-.114-1.334-.4-.334-.285-.556-.684-.556-1.14 0-.513.167-.912.445-1.197.333-.286.778-.514 1.445-.628l3.392-.57v.57c.056.513-.111 1.084-.389 1.654Zm13.066 1.083h-.389c-.556 0-.945-.057-1.279-.228-.333-.171-.611-.4-.722-.741-.167-.343-.223-.685-.223-1.198v-5.873h3.114V26.09h-3.169v-3.136h-3.225v1.084c0 .684-.167 1.197-.556 1.54-.39.341-.89.512-1.557.512h-.223v2.966h2.336v6.101c0 1.54.444 2.794 1.278 3.65.834.855 2.002 1.311 3.559 1.311.222 0 .5 0 .834-.057.278-.057.556-.057.778-.114v-2.851h-.556Zm6.005-9.009h-3.225V39.89h3.225V28.087Zm0-5.075h-3.225v3.535h3.225v-3.535Zm14.957 6.272c-.611-1.083-1.501-1.939-2.557-2.566-1.057-.627-2.28-.912-3.615-.912a7.573 7.573 0 0 0-3.614.912c-1.056.627-1.946 1.483-2.557 2.566-.612 1.084-.946 2.338-.946 3.707 0 1.368.334 2.623.946 3.706.611 1.084 1.501 1.939 2.557 2.566 1.057.628 2.28.913 3.614.913 1.279 0 2.503-.285 3.559-.913 1.056-.627 1.946-1.482 2.558-2.566.667-1.083.945-2.338.945-3.706.056-1.426-.222-2.68-.89-3.707Zm-2.891 5.873c-.334.628-.778 1.141-1.334 1.483-.556.342-1.168.513-1.947.513-.722 0-1.39-.17-1.946-.513-.556-.342-1-.855-1.334-1.483-.334-.627-.5-1.368-.5-2.166 0-.799.166-1.54.5-2.167.334-.628.778-1.084 1.334-1.483a3.724 3.724 0 0 1 1.946-.57c.723 0 1.391.171 1.947.57.556.342 1 .855 1.334 1.483.334.627.5 1.311.5 2.167a6.828 6.828 0 0 1-.5 2.166Zm16.792-6.9c-.445-.798-1.057-1.426-1.779-1.825-.779-.456-1.669-.684-2.614-.684-.945 0-1.779.228-2.502.627-.556.342-1.001.799-1.279 1.369v-1.71h-3.058V39.89h3.225v-8.097c0-.628.111-1.14.334-1.597a2.39 2.39 0 0 1 .945-1.027c.389-.228.89-.342 1.39-.342.556 0 1.001.114 1.446.342.389.229.722.57.945 1.027.222.456.333.97.333 1.597v8.097h3.225v-8.896c.056-1.026-.166-1.939-.611-2.737ZM63.718 42c-.222-.057-.445 0-.667 0a17.555 17.555 0 0 1-6.617-.912c-.945-.342-1.89-.741-2.78-1.312a10.598 10.598 0 0 1-2.224-1.71 7.892 7.892 0 0 1-1.279-1.768c-.222-.4-.333-.855-.444-1.369-.167-1.083 0-1.995.5-2.908a4.877 4.877 0 0 1 1.557-1.654c.667-.456 1.39-.798 2.168-1.083.668-.228 1.39-.4 2.113-.513a15.245 15.245 0 0 1 3.948 0c1.724.228 3.447.684 5.06 1.482 1 .514 2.001 1.084 2.891 1.882a7.024 7.024 0 0 1 1.557 1.825c.167.228.278.456.39.741.11.228.166.4.221.628 0 .057.056.114.056.17l.167 1.198c0 .057-.056.114 0 .171.056.228 0 .456-.056.741-.055.4-.222.742-.389 1.084-.278.513-.612.912-1 1.312-.612.513-1.28.912-1.947 1.254-.5.228-1.056.4-1.557.513-.11 0-.166.057-.278.114-.444-.057-.89 0-1.39.114Zm-31.415-8.154c-1.835 0-3.503-.285-5.115-.97-.667-.285-1.335-.627-1.946-1.083-.5-.4-.945-.798-1.279-1.369-.278-.456-.5-.969-.556-1.54-.056-.57.056-1.14.334-1.71a5.102 5.102 0 0 1 1.167-1.54c.723-.627 1.502-1.14 2.391-1.482 1-.4 2.057-.684 3.114-.856 1.167-.17 2.28-.228 3.447-.114 1.557.114 3.114.514 4.504 1.255.723.4 1.39.855 1.89 1.482.167.229.39.457.5.742.557.97.557 1.996.112 3.022a5.991 5.991 0 0 1-1.112 1.54c-.723.684-1.612 1.197-2.502 1.596-.945.4-1.89.628-2.892.799-.667.17-1.39.17-2.057.228ZM5.892 28.315c-.834 0-1.723-.057-2.613-.285a4.228 4.228 0 0 1-1.39-.57c-.278-.172-.5-.343-.723-.514-.333-.342-.556-.684-.611-1.14-.056-.342 0-.627.11-.97.168-.399.39-.74.612-1.026.5-.456 1.001-.855 1.557-1.255 1.057-.74 2.224-1.197 3.448-1.596 1.167-.4 2.39-.627 3.67-.741a21.344 21.344 0 0 1 2.724 0c.778.114 1.501.285 2.224.627.39.17.723.399 1 .684.501.57.668 1.198.446 1.882-.056.285-.223.513-.334.741-.334.513-.779.913-1.223 1.312-.779.627-1.613 1.083-2.502 1.482-1.335.57-2.725.97-4.17 1.14-.723.172-1.446.229-2.225.229ZM29.19 16.91c-1.28 0-2.336-.114-3.448-.4-.389-.114-.778-.285-1.167-.456-.223-.114-.5-.285-.668-.513-.445-.456-.445-.97-.11-1.54.166-.228.333-.399.555-.513.39-.285.834-.513 1.335-.741.722-.285 1.445-.456 2.224-.627.945-.171 1.946-.228 2.891-.228.945.057 1.89.114 2.836.399.445.114.89.285 1.334.57.222.171.445.285.612.513.333.456.333.913.055 1.369-.167.285-.389.456-.611.627-.39.285-.779.513-1.168.684-.667.285-1.39.457-2.168.628-.946.17-1.78.285-2.503.228Zm19.293-8.268c-1.167-.057-2.335-.171-3.502-.627-.445-.171-.89-.4-1.28-.742a5.108 5.108 0 0 1-.5-.57c-.222-.456-.222-.855 0-1.311.167-.343.39-.514.667-.685.445-.342.946-.513 1.446-.684 1.168-.342 2.335-.4 3.559-.285.89.114 1.779.285 2.613.684.39.171.778.4 1.112.742.167.17.278.342.39.513.277.456.222.912 0 1.368-.112.228-.279.4-.446.514-.389.342-.834.513-1.223.684-1 .285-1.946.342-2.836.399ZM31.414 6.247c-.946-.171-1.613-.285-2.28-.742l-.667-.513c-.111-.114-.223-.228-.278-.399-.167-.4-.167-.855.11-1.254.168-.229.335-.4.501-.514.278-.228.612-.399.89-.513a7.06 7.06 0 0 1 1.835-.399c.611-.057 1.223 0 1.835.171a4.457 4.457 0 0 1 1.612.684c.223.171.39.342.556.57.111.115.167.343.223.514.055.285.055.57-.112.798-.11.228-.278.4-.389.57-.278.228-.5.4-.778.514-.556.285-1.112.399-1.724.456-.39.057-.945.057-1.334.057ZM16.179 4.422c-.5-.171-.945-.342-1.39-.684-.167-.114-.278-.286-.445-.514-.223-.399-.111-.912.278-1.311.222-.114.445-.228.611-.342.5-.285 1.001-.4 1.446-.514 1.112-.17 2.169-.057 3.17.343.333.114.611.285.89.627.11.114.166.285.221.456.112.285.056.627-.166.912-.167.171-.334.343-.5.457-.39.285-.78.456-1.168.513a5.03 5.03 0 0 1-1.835.17c-.334 0-.723-.056-1.112-.113Z"/></svg>